<?xml version="1.0" standalone="no"?>
<!DOCTYPE svg PUBLIC "-//W3C//DTD SVG 20010904//EN"
 "http://www.w3.org/TR/2001/REC-SVG-20010904/DTD/svg10.dtd">
<svg version="1.0" xmlns="http://www.w3.org/2000/svg"
 width="500.000000pt" height="500.000000pt" viewBox="0 0 500.000000 500.000000"
 preserveAspectRatio="xMidYMid meet">

<g transform="translate(0.000000,500.000000) scale(0.100000,-0.100000)"
fill="#000000" stroke="none">
<path d="M2307 4153 c-2 -5 21 -188 52 -408 53 -376 58 -400 76 -397 11 2 24
7 28 11 13 13 -22 198 -45 237 -16 27 -18 38 -9 44 15 9 12 42 -30 313 -16
104 -29 193 -29 198 0 11 -37 12 -43 2z"/>
<path d="M2821 3804 c0 -11 3 -14 6 -6 3 7 2 16 -1 19 -3 4 -6 -2 -5 -13z"/>
<path d="M2806 3754 c-4 -14 -5 -28 -3 -31 3 -2 8 8 11 23 4 14 5 28 3 31 -3
2 -8 -8 -11 -23z"/>
<path d="M2791 3703 c-1 -6 -4 -20 -7 -30 -5 -17 -5 -17 6 0 6 10 9 23 6 30
-3 9 -5 9 -5 0z"/>
<path d="M2520 3665 c0 -5 5 -17 10 -25 5 -8 10 -10 10 -5 0 6 -5 17 -10 25
-5 8 -10 11 -10 5z"/>
<path d="M2540 3616 c0 -11 40 -86 45 -86 3 0 -4 19 -16 43 -23 45 -29 54 -29
43z"/>
<path d="M2607 3489 c10 -17 24 -36 32 -42 8 -7 2 7 -14 31 -32 49 -45 57 -18
11z"/>
<path d="M2707 3486 c-4 -10 -1 -13 8 -9 8 3 12 9 9 14 -7 12 -11 11 -17 -5z"/>
<path d="M2868 3493 c7 -3 16 -2 19 1 4 3 -2 6 -13 5 -11 0 -14 -3 -6 -6z"/>
<path d="M2818 3483 c6 -2 18 -2 25 0 6 3 1 5 -13 5 -14 0 -19 -2 -12 -5z"/>
<path d="M2269 3371 c-49 -40 -18 -131 46 -131 38 0 75 37 75 76 0 65 -69 97
-121 55z m23 -13 c-6 -6 -15 -8 -19 -4 -4 4 -1 11 7 16 19 12 27 3 12 -12z"/>
<path d="M2251 2884 c-24 -30 -26 -43 -10 -77 23 -50 96 -56 126 -11 15 23 14
26 -23 68 -46 52 -65 56 -93 20z m53 -103 c4 -5 -3 -7 -14 -4 -23 6 -26 13 -6
13 8 0 17 -4 20 -9z"/>
<path d="M2635 2671 c-76 -32 -76 -135 0 -167 102 -42 172 111 74 161 -31 17
-45 18 -74 6z m2 -28 c-9 -9 -20 -13 -24 -9 -4 4 -1 11 7 16 25 16 35 11 17
-7z"/>
<path d="M3232 1992 c-17 -11 -49 -195 -56 -324 -5 -102 -5 -108 13 -108 11 0
26 -3 35 -6 12 -5 16 1 16 22 0 59 15 59 59 1 40 -53 43 -55 71 -44 17 6 30
15 30 19 0 4 -25 34 -57 68 l-56 61 38 32 c88 72 83 65 61 82 -26 20 -26 20
-73 -20 -23 -19 -44 -35 -48 -35 -4 0 -4 59 0 130 7 134 5 145 -33 122z"/>
<path d="M1943 1936 c-28 -6 -54 -13 -57 -16 -2 -3 -12 -39 -20 -80 l-16 -75
51 -51 c28 -29 48 -57 45 -63 -4 -6 -29 -11 -57 -11 -45 0 -49 -2 -49 -25 0
-20 7 -26 38 -34 60 -16 75 -16 114 -1 33 12 38 19 48 62 5 27 10 54 10 61 -1
7 -25 29 -55 49 -52 37 -53 38 -43 71 7 22 23 40 50 56 27 15 38 27 34 38 -3
8 -6 19 -6 24 0 11 -20 10 -87 -5z"/>
<path d="M2757 1888 c-16 -117 -19 -220 -7 -267 l12 -51 49 0 c46 0 51 3 79
42 25 34 30 50 30 99 0 52 -3 61 -25 75 -21 14 -31 15 -51 5 -14 -6 -27 -11
-29 -11 -3 0 -5 32 -5 70 0 39 -4 70 -9 70 -5 0 -16 3 -24 6 -11 4 -16 -6 -20
-38z m121 -185 c3 -23 -37 -73 -58 -73 -16 0 -12 62 7 82 21 24 47 19 51 -9z"/>
<path d="M1593 1869 c4 -30 7 -112 7 -183 0 -128 0 -128 23 -122 12 3 56 9 99
12 89 8 99 12 91 42 -5 19 -12 22 -58 22 -51 0 -53 1 -59 31 -9 47 -9 48 32
51 38 3 38 3 30 36 -7 27 -13 32 -38 32 -27 0 -30 3 -30 30 0 28 2 30 39 30
34 0 39 3 44 28 3 15 4 28 3 29 -2 2 -45 6 -96 10 l-93 6 6 -54z"/>
<path d="M2240 1761 c0 -64 -3 -133 -6 -153 -6 -37 -6 -38 24 -38 33 0 42 13
42 65 0 56 16 48 49 -25 17 -39 34 -70 37 -70 23 0 84 25 84 35 0 6 -20 42
-45 79 -25 38 -45 72 -45 76 0 4 28 29 62 55 58 46 60 49 39 59 -28 12 -72
-10 -137 -67 l-44 -39 0 65 c0 64 0 65 -30 69 l-30 5 0 -116z"/>
<path d="M2598 1813 c-66 -6 -78 -25 -78 -129 0 -113 13 -129 97 -119 82 9 92
22 100 124 7 97 -5 132 -46 129 -14 -1 -47 -3 -73 -5z m62 -113 c0 -63 -3 -66
-47 -54 -20 6 -23 13 -23 60 l0 54 35 0 35 0 0 -60z"/>
<path d="M3028 1813 c-66 -6 -78 -25 -78 -129 0 -113 13 -129 97 -119 82 9 92
22 100 124 7 97 -5 132 -46 129 -14 -1 -47 -3 -73 -5z m62 -113 c0 -63 -3 -66
-47 -54 -20 6 -23 13 -23 60 l0 54 35 0 35 0 0 -60z"/>
<path d="M1188 1323 c19 -4 22 -11 24 -56 l1 -52 6 49 c4 37 11 51 26 57 13 5
4 7 -30 7 -27 0 -40 -3 -27 -5z"/>
<path d="M1373 1293 c-8 -21 -19 -46 -24 -55 -6 -12 -6 -18 1 -18 5 0 10 7 10
15 0 22 66 20 74 -1 4 -9 9 -15 11 -12 7 7 -38 108 -47 108 -5 0 -16 -17 -25
-37z m47 -25 c0 -4 -11 -8 -25 -8 -23 0 -24 2 -13 26 11 24 13 25 25 8 7 -10
13 -21 13 -26z"/>
<path d="M1552 1275 c1 -53 2 -55 5 -15 l4 45 39 -45 39 -45 -1 60 c-1 41 -3
48 -5 23 -2 -21 -7 -38 -10 -38 -3 0 -21 17 -39 38 l-33 37 1 -60z"/>
<path d="M1751 1273 c0 -39 3 -51 8 -38 5 11 20 22 36 25 40 7 56 37 31 56
-11 8 -32 14 -48 14 -28 0 -28 -1 -27 -57z m67 20 c3 -20 -1 -23 -27 -23 -23
0 -31 5 -31 18 0 25 10 33 35 30 12 -2 21 -12 23 -25z"/>
<path d="M1952 1285 c-22 -45 -31 -86 -11 -52 6 10 22 17 39 17 17 0 33 -7 39
-17 6 -10 11 -12 11 -6 0 16 -42 103 -50 103 -3 0 -16 -20 -28 -45z m38 16 c0
-5 3 -16 6 -25 4 -12 0 -16 -15 -16 -22 0 -25 8 -15 34 7 17 24 22 24 7z"/>
<path d="M2251 1273 c1 -32 4 -48 6 -36 3 16 13 23 36 25 57 5 44 68 -14 68
-29 0 -29 -1 -28 -57z m58 38 c21 -13 5 -41 -24 -41 -20 0 -25 5 -25 25 0 26
22 33 49 16z"/>
<path d="M2430 1275 l0 -55 43 2 c36 1 38 2 10 5 -43 6 -47 40 -5 46 l27 4
-27 2 c-21 1 -28 6 -28 20 0 15 8 21 33 24 28 3 26 4 -10 5 l-43 2 0 -55z"/>
<path d="M2610 1276 c0 -63 19 -78 22 -16 0 22 1 45 2 52 1 6 -5 13 -11 16
-10 3 -13 -12 -13 -52z"/>
<path d="M2690 1293 l0 -36 -25 23 c-14 13 -25 20 -25 16 0 -10 54 -76 63 -76
4 0 7 25 7 55 0 30 -4 55 -10 55 -5 0 -10 -17 -10 -37z"/>
<path d="M2826 1314 c-24 -23 -20 -61 9 -80 31 -20 65 -10 64 19 l0 22 -9 -22
c-11 -27 -32 -29 -54 -7 -20 20 -20 38 0 59 11 11 25 14 41 10 16 -4 22 -2 18
5 -9 15 -51 12 -69 -6z"/>
<path d="M3021 1279 c-11 -29 -19 -54 -16 -57 2 -3 7 3 11 12 8 21 62 22 70 1
4 -8 10 -15 15 -15 11 0 -35 103 -48 107 -6 2 -20 -20 -32 -48z m37 -17 c-27
-5 -32 2 -18 29 l13 22 13 -24 c11 -22 11 -24 -8 -27z"/>
<path d="M3209 1278 c10 -29 22 -53 26 -53 5 0 13 14 19 32 17 48 23 49 37 4
7 -23 17 -40 22 -38 13 4 49 107 38 107 -4 0 -13 -18 -20 -41 -13 -44 -20 -44
-36 2 -14 39 -26 40 -39 2 -17 -48 -23 -49 -37 -4 -7 23 -16 41 -20 41 -4 0 0
-24 10 -52z"/>
<path d="M3460 1275 l0 -55 43 1 42 2 -35 6 c-48 8 -53 38 -8 44 l33 4 -32 1
c-25 2 -33 7 -33 21 0 15 8 21 33 24 31 4 31 4 -5 5 l-38 2 0 -55z"/>
<path d="M3637 1323 c19 -4 23 -12 26 -56 l3 -52 2 52 c2 45 5 52 25 56 12 2
0 4 -28 4 -27 0 -40 -2 -28 -4z"/>
</g>
</svg>
